<svg width="20" height="19" viewBox="0 0 20 19" fill="none" xmlns="http://www.w3.org/2000/svg">
<path d="M8.41667 14.771C8.61923 14.771 8.82202 14.6923 8.9764 14.5375L9.04443 14.4695C9.35398 14.1599 9.35398 13.6588 9.04443 13.35L5.986 10.2916L16.3333 10.2916C16.7703 10.2916 17.125 9.93692 17.125 9.49992C17.125 9.06292 16.7703 8.70825 16.3333 8.70825L5.986 8.70825L9.04443 5.64982C9.35398 5.34028 9.35398 4.8391 9.04443 4.53035L8.9764 4.46232C8.66686 4.15278 8.16568 4.15278 7.85693 4.46232L3.37907 8.94019C3.06953 9.24973 3.06953 9.7509 3.37907 10.0597L7.85693 14.5375C8.0117 14.6923 8.2141 14.771 8.41667 14.771Z" fill="white"/>
</svg>
