<svg width="16" height="15" viewBox="0 0 16 15" fill="none" xmlns="http://www.w3.org/2000/svg">
<g clip-path="url(#clip0_444_8563)">
<path d="M12.0625 12.1875C13.961 12.1875 15.5 10.6485 15.5 8.75C15.5 6.85152 13.961 5.3125 12.0625 5.3125C10.164 5.3125 8.625 6.85152 8.625 8.75C8.625 10.6485 10.164 12.1875 12.0625 12.1875Z" fill="black"/>
<path d="M10.3731 2.91844C9.535 4.52031 8.625 6.72656 8.625 8.75031H11.75V3.25094C11.75 2.48594 10.7275 2.24094 10.3731 2.91844Z" fill="black"/>
<path opacity="0.35" d="M3.9375 5.31281C3.83188 5.31281 3.72813 5.31906 3.625 5.32844V3.25094C3.625 2.48594 2.6025 2.24094 2.24812 2.91844C1.45937 4.42594 0.616875 6.46656 0.519375 8.38906C0.506875 8.50781 0.5 8.62844 0.5 8.75031C0.5 10.6491 2.03875 12.1878 3.9375 12.1878C5.83625 12.1878 7.375 10.6491 7.375 8.75031C7.375 6.85156 5.83625 5.31281 3.9375 5.31281Z" fill="black"/>
</g>
<defs>
<clipPath id="clip0_444_8563">
<rect width="15" height="15" fill="white" transform="translate(0.5)"/>
</clipPath>
</defs>
</svg>
