<svg width="20" height="19" viewBox="0 0 20 19" fill="none" xmlns="http://www.w3.org/2000/svg">
<path d="M11.5833 4.229C11.3808 4.229 11.178 4.30771 11.0236 4.46248L10.9556 4.53052C10.646 4.84006 10.646 5.34123 10.9556 5.64998L14.014 8.70841H3.66667C3.22967 8.70841 2.875 9.06308 2.875 9.50008C2.875 9.93708 3.22967 10.2917 3.66667 10.2917H14.014L10.9556 13.3502C10.646 13.6597 10.646 14.1609 10.9556 14.4696L11.0236 14.5377C11.3331 14.8472 11.8343 14.8472 12.1431 14.5377L16.6209 10.0598C16.9305 9.75027 16.9305 9.2491 16.6209 8.94035L12.1431 4.46248C11.9883 4.30771 11.7859 4.229 11.5833 4.229Z" fill="white"/>
</svg>
