<svg width="24" height="24" viewBox="0 0 24 24" fill="none" xmlns="http://www.w3.org/2000/svg">
<g clip-path="url(#clip0_444_20)">
<path d="M14.2499 0V1.5C18.7987 1.5 22.4999 5.20125 22.4999 9.75H23.9999C23.9999 4.374 19.6259 0 14.2499 0ZM6.48773 2.25439C6.09407 2.25439 5.70077 2.38283 5.38031 2.64111L5.34369 2.67041L2.98529 5.10352L3.0351 5.05664C2.25462 5.72881 2.03953 6.79059 2.37445 7.68311C3.00645 9.50556 4.61758 13.0297 7.79584 16.2041C10.9809 19.393 14.5421 20.9351 16.3037 21.6226L16.3212 21.6284L16.3388 21.6343C17.2496 21.9396 18.2335 21.7218 18.9389 21.1187L18.9609 21.0996L21.3046 18.7559C21.9268 18.1337 21.9268 17.043 21.3046 16.4209L18.2314 13.3447C17.6075 12.7208 16.5174 12.7208 15.8935 13.3447L14.4052 14.833C13.8724 14.5787 12.5615 13.919 11.3159 12.731C10.0864 11.5585 9.45871 10.2033 9.23139 9.67969L10.7314 8.17969C11.3896 7.52149 11.427 6.39146 10.6684 5.7876L10.7372 5.85059L7.63031 2.67041L7.59516 2.64111C7.27469 2.38285 6.8814 2.25439 6.48773 2.25439ZM14.2499 3V4.5C17.1442 4.5 19.4999 6.855 19.4999 9.75H20.9999C20.9999 6.0285 17.9722 3 14.2499 3ZM6.4892 3.75C6.54265 3.74991 6.59537 3.77005 6.6474 3.81006L9.69721 6.93311L9.73383 6.9624C9.7252 6.95554 9.76265 7.02734 9.67084 7.11914L7.45307 9.33691L7.62445 9.78955C7.62445 9.78955 8.47094 12.0911 10.2802 13.8164C12.0594 15.5132 14.2529 16.4399 14.2529 16.4399L14.7202 16.6392L16.954 14.4053C17.0801 14.2792 17.0447 14.2792 17.1708 14.4053L20.2441 17.4814C20.3719 17.6093 20.372 17.5674 20.2441 17.6953L17.9589 19.9805C17.611 20.2762 17.2515 20.3537 16.8193 20.2104C15.1227 19.547 11.8044 18.0952 8.85639 15.1436C5.88793 12.1787 4.34974 8.80995 3.7851 7.17773L3.78217 7.16895L3.77777 7.15869C3.66421 6.85836 3.74722 6.42279 4.01361 6.19336L4.03852 6.17139L6.32953 3.81006C6.38158 3.77042 6.43575 3.75009 6.4892 3.75ZM14.2499 6V7.5C15.4904 7.5 16.4999 8.5095 16.4999 9.75H17.9999C17.9999 7.68225 16.3177 6 14.2499 6Z" fill="white"/>
</g>
<defs>
<clipPath id="clip0_444_20">
<rect width="24" height="24" fill="white"/>
</clipPath>
</defs>
</svg>
