<svg width="24" height="25" viewBox="0 0 24 25" fill="none" xmlns="http://www.w3.org/2000/svg">
<path d="M12 2C9.52736 2 7.50002 4.02734 7.50002 6.5H4.50002C4.10158 6.5 3.77346 6.81055 3.75002 7.20898L3.00002 20.709C2.9883 20.9141 3.06447 21.1191 3.2051 21.2656C3.34572 21.418 3.54494 21.5 3.75002 21.5H20.25C20.4551 21.5 20.6543 21.418 20.7949 21.2656C20.9356 21.1191 21.0117 20.9141 21 20.709L20.25 7.20898C20.2266 6.81055 19.8985 6.5 19.5 6.5H16.5C16.5 4.02734 14.4727 2 12 2ZM12 3.5C13.6524 3.5 15 4.84766 15 6.5H9.00002C9.00002 4.84766 10.3477 3.5 12 3.5ZM5.209 8H7.50002V11H9.00002V8H15V11H16.5V8H18.791L19.4531 20H4.54689L5.209 8Z" fill="black"/>
</svg>
