<svg width="112" height="112" viewBox="0 0 112 112" fill="none" xmlns="http://www.w3.org/2000/svg">
<rect width="112" height="112" rx="56" fill="white"/>
<path d="M56 27.8398C43.9969 27.8398 34.24 37.5968 34.24 49.5998C34.24 56.9273 39.5463 65.6789 44.7225 72.8223C49.8987 79.9658 55.0725 85.4173 55.0725 85.4173C55.1925 85.5435 55.3369 85.6439 55.497 85.7123C55.6571 85.7807 55.8295 85.8158 56.0036 85.8153C56.1777 85.8148 56.3498 85.7789 56.5096 85.7096C56.6693 85.6403 56.8132 85.5391 56.9325 85.4123C56.9325 85.4123 62.1028 79.9022 67.2775 72.7298C72.4522 65.5574 77.76 56.8167 77.76 49.5998C77.76 37.5968 68.003 27.8398 56 27.8398ZM56 30.3998C66.6197 30.3998 75.2 38.9802 75.2 49.5998C75.2 55.4825 70.2678 64.2115 65.2025 71.2323C60.8794 77.2244 57.1702 81.3266 55.995 82.6098C54.8153 81.3352 51.1151 77.281 46.7975 71.3223C41.7337 64.3339 36.8 55.6177 36.8 49.5998C36.8 38.9802 45.3803 30.3998 56 30.3998ZM50.715 39.3048C46.5124 39.3048 43.0925 42.7771 43.0925 47.0073C43.0925 51.2474 45.535 54.6008 48.215 57.0498C50.895 59.4989 53.9176 61.1595 55.3375 62.0173C55.5341 62.1359 55.759 62.1994 55.9886 62.2011C56.2182 62.2029 56.4441 62.1429 56.6425 62.0273C58.0853 61.1882 61.1019 59.5332 63.7825 57.0748C66.4631 54.6165 68.905 51.2474 68.905 47.0073C68.9065 42.7782 65.4879 39.3048 61.285 39.3048C59.1622 39.3048 57.3826 40.3449 56 41.7648C54.6174 40.3449 52.8378 39.3048 50.715 39.3048ZM50.715 41.8648C52.4797 41.8648 54.0202 42.7745 54.93 44.1623C55.0465 44.3397 55.2053 44.4854 55.3921 44.5862C55.5788 44.687 55.7878 44.7397 56 44.7397C56.2122 44.7397 56.4211 44.687 56.6079 44.5862C56.7947 44.4854 56.9535 44.3397 57.07 44.1623C57.9798 42.7745 59.5203 41.8648 61.285 41.8648C64.0863 41.8648 66.346 44.1453 66.345 47.0073C66.345 50.2591 64.4477 52.9907 62.0525 55.1873C59.9156 57.1471 57.5795 58.5105 56.005 59.4223C54.4148 58.4772 52.0793 57.1125 49.9425 55.1598C47.5467 52.9705 45.6525 50.2591 45.6525 47.0073C45.6525 44.1438 47.9134 41.8648 50.715 41.8648Z" fill="black"/>
</svg>
