<svg width="112" height="112" viewBox="0 0 112 112" fill="none" xmlns="http://www.w3.org/2000/svg">
<rect width="112" height="112" rx="56" fill="white"/>
<path d="M35.52 27.8398C33.415 27.8398 31.68 29.5748 31.68 31.6798V35.3048C31.655 35.4448 31.655 35.5848 31.68 35.7198V74.9848C31.655 75.1248 31.655 75.2648 31.68 75.3998V80.3198C31.68 82.4248 33.415 84.1598 35.52 84.1598H61.12C63.225 84.1598 64.96 82.4248 64.96 80.3198V75.4148C64.985 75.2748 64.985 75.1348 64.96 74.9998V35.7348C64.985 35.5948 64.985 35.4548 64.96 35.3198V31.6798C64.96 29.5748 63.225 27.8398 61.12 27.8398H35.52ZM35.52 30.3998H61.12C61.83 30.3998 62.4 30.9698 62.4 31.6798V34.2398H34.24V31.6798C34.24 30.9698 34.81 30.3998 35.52 30.3998ZM34.24 36.7998H62.4V73.9198H34.24V36.7998ZM76.015 39.8248L74.2 41.6398C77.945 45.0398 80.32 49.9148 80.32 55.3598C80.32 60.4748 78.23 65.1098 74.87 68.4698L76.665 70.2648C80.495 66.4448 82.88 61.1848 82.88 55.3598C82.88 49.2098 80.22 43.6898 76.015 39.8248ZM70.585 45.2548L68.76 47.0798C71.125 49.0698 72.64 52.0348 72.64 55.3598C72.64 58.3598 71.4 61.0598 69.43 63.0298L71.24 64.8398C73.675 62.4098 75.2 59.0648 75.2 55.3598C75.2 51.3298 73.405 47.7198 70.585 45.2548ZM34.24 76.4798H62.4V80.3198C62.4 81.0298 61.83 81.5998 61.12 81.5998H35.52C34.81 81.5998 34.24 81.0298 34.24 80.3198V76.4798ZM44.48 77.7598C44.02 77.7548 43.59 77.9948 43.355 78.3948C43.125 78.7948 43.125 79.2848 43.355 79.6848C43.59 80.0848 44.02 80.3248 44.48 80.3198H52.16C52.62 80.3248 53.05 80.0848 53.285 79.6848C53.515 79.2848 53.515 78.7948 53.285 78.3948C53.05 77.9948 52.62 77.7548 52.16 77.7598H44.48Z" fill="black"/>
</svg>
