<svg width="112" height="112" viewBox="0 0 112 112" fill="none" xmlns="http://www.w3.org/2000/svg">
<rect width="112" height="112" rx="56" fill="white"/>
<path d="M57.63 29.6899C57.47 29.7049 57.315 29.7299 57.155 29.7599C55.875 30.0149 54.465 31.0399 53.185 32.3199L59.325 36.1599C60.095 33.5999 60.61 31.0399 58.945 30.0149C58.56 29.7249 58.105 29.6549 57.63 29.6899ZM51.395 34.2399C50.735 35.0599 49.685 36.4249 48.47 38.0649L35.775 40.3849C35.005 40.5149 34.24 41.1499 33.855 41.9199L27.84 56.6399C27.585 57.4099 27.325 58.1749 27.455 58.9449C27.71 61.7599 30.145 63.9349 32.96 63.6799C33.56 63.6199 34.155 63.4949 34.73 63.2849L40.64 67.0049C41.465 65.8749 43.105 63.6049 44.755 61.3499C48.18 63.1149 56.895 67.5199 56.895 67.5199C59.71 69.0549 63.04 69.3149 66.115 68.6749L76.225 66.4949L76.735 70.2049L84.16 69.1849L80.835 46.6549L73.405 47.6799L73.535 48.7049L60.095 40.2549C59.565 39.9599 58.915 39.5599 58.255 39.2199C58.305 39.1149 58.39 38.9449 58.435 38.8449L51.395 34.2399ZM52.035 37.8249L55.105 39.7449C53.825 42.3049 51.905 46.0149 49.475 49.9849L48.82 51.1149L45.885 50.3649C44.98 50.2249 44.09 50.3299 43.285 50.6399C43.855 49.6799 44.425 48.7199 44.995 47.8049C47.555 43.7099 50.115 40.1299 52.035 37.8249ZM46.285 41.1099C45.18 42.6899 44.02 44.3799 42.815 46.2749C40.05 50.8199 37.425 55.7349 35.47 59.3999C35.065 60.1549 34.2 60.9949 32.96 61.1199C31.81 61.2499 30.53 60.4799 30.145 59.3249C29.89 58.6849 30.015 58.0449 30.27 57.5349L35.905 43.5849C36.035 43.1999 36.415 42.9449 36.8 42.8149L46.285 41.1099ZM57.085 41.6499C57.755 41.9899 58.45 42.3799 58.815 42.5599L73.025 51.5199H73.92L75.715 63.9349L65.475 66.1149C62.915 66.6249 60.225 66.3649 57.92 65.2149L43.965 58.1749C42.685 57.5349 42.045 56.1299 42.685 54.7199C43.2 53.4399 44.48 52.7999 45.76 53.0549L56.125 55.6149L60.095 49.8549L57.795 48.4449L54.975 52.6749L51.465 51.7799C53.855 47.8749 55.78 44.2749 57.085 41.6499ZM78.655 49.5999L81.215 67.0049L78.915 67.3949L76.355 49.8549L78.655 49.5999ZM40 56.3799C40.105 56.9449 40.265 57.5049 40.515 58.0449C41.025 59.0699 41.795 59.7099 42.305 60.0949C42.305 60.0949 42.505 60.1999 42.515 60.1999L40 63.5549L37.055 61.7599C37.845 60.2899 38.91 58.3399 40 56.3799ZM32.83 65.0849C31.425 69.0549 31.425 71.6149 31.425 72.6399L30.53 73.9199C30.27 74.3049 30.4 74.8149 30.785 75.0749C31.04 75.1999 31.17 75.1999 31.425 75.1999C31.68 75.0699 31.81 74.9449 32.065 74.8149L32.83 73.5349C33.73 73.1499 36.03 71.9999 38.975 68.9249L32.83 65.0849Z" fill="black"/>
</svg>
