<svg aria-hidden="true" style="position: absolute; width: 0; height: 0; overflow: hidden;" version="1.1" xmlns="http://www.w3.org/2000/svg" xmlns:xlink="http://www.w3.org/1999/xlink">
<defs>
<symbol id="icon-Squared-Menu" viewBox="0 0 32 32">
<path d="M3.84 2.56c-0.7 0-1.28 0.58-1.28 1.28v5.12c0 0.7 0.58 1.28 1.28 1.28h5.12c0.7 0 1.28-0.58 1.28-1.28v-5.12c0-0.7-0.58-1.28-1.28-1.28h-5.12zM13.44 2.56c-0.7 0-1.28 0.58-1.28 1.28v5.12c0 0.7 0.58 1.28 1.28 1.28h5.12c0.7 0 1.28-0.58 1.28-1.28v-5.12c0-0.7-0.58-1.28-1.28-1.28h-5.12zM23.040 2.56c-0.7 0-1.28 0.58-1.28 1.28v5.12c0 0.7 0.58 1.28 1.28 1.28h5.12c0.7 0 1.28-0.58 1.28-1.28v-5.12c0-0.7-0.58-1.28-1.28-1.28h-5.12zM3.84 3.84h5.12v5.12h-5.12v-5.12zM13.44 3.84h5.12v5.12h-5.12v-5.12zM23.040 3.84h5.12v5.12h-5.12v-5.12zM3.84 12.16c-0.7 0-1.28 0.58-1.28 1.28v5.12c0 0.7 0.58 1.28 1.28 1.28h5.12c0.7 0 1.28-0.58 1.28-1.28v-5.12c0-0.7-0.58-1.28-1.28-1.28h-5.12zM13.44 12.16c-0.7 0-1.28 0.58-1.28 1.28v5.12c0 0.7 0.58 1.28 1.28 1.28h5.12c0.7 0 1.28-0.58 1.28-1.28v-5.12c0-0.7-0.58-1.28-1.28-1.28h-5.12zM23.040 12.16c-0.7 0-1.28 0.58-1.28 1.28v5.12c0 0.7 0.58 1.28 1.28 1.28h5.12c0.7 0 1.28-0.58 1.28-1.28v-5.12c0-0.7-0.58-1.28-1.28-1.28h-5.12zM3.84 13.44h5.12v5.12h-5.12v-5.12zM13.44 13.44h5.12v5.12h-5.12v-5.12zM23.040 13.44h5.12v5.12h-5.12v-5.12zM3.84 21.76c-0.7 0-1.28 0.58-1.28 1.28v5.12c0 0.7 0.58 1.28 1.28 1.28h5.12c0.7 0 1.28-0.58 1.28-1.28v-5.12c0-0.7-0.58-1.28-1.28-1.28h-5.12zM13.44 21.76c-0.7 0-1.28 0.58-1.28 1.28v5.12c0 0.7 0.58 1.28 1.28 1.28h5.12c0.7 0 1.28-0.58 1.28-1.28v-5.12c0-0.7-0.58-1.28-1.28-1.28h-5.12zM23.040 21.76c-0.7 0-1.28 0.58-1.28 1.28v5.12c0 0.7 0.58 1.28 1.28 1.28h5.12c0.7 0 1.28-0.58 1.28-1.28v-5.12c0-0.7-0.58-1.28-1.28-1.28h-5.12zM3.84 23.040h5.12v5.12h-5.12v-5.12zM13.44 23.040h5.12v5.12h-5.12v-5.12zM23.040 23.040h5.12v5.12h-5.12v-5.12z"></path>
</symbol>
<symbol id="icon-ShoppingBag" viewBox="0 0 31 32">
<path d="M15.36 2.56c-3.165 0-5.76 2.595-5.76 5.76h-3.84c-0.51 0-0.93 0.398-0.96 0.908l-0.96 17.28c-0.015 0.263 0.083 0.525 0.263 0.712 0.18 0.195 0.435 0.3 0.697 0.3h21.12c0.263 0 0.517-0.105 0.697-0.3 0.18-0.188 0.277-0.45 0.263-0.712l-0.96-17.28c-0.030-0.51-0.45-0.908-0.96-0.908h-3.84c0-3.165-2.595-5.76-5.76-5.76zM15.36 4.48c2.115 0 3.84 1.725 3.84 3.84h-7.68c0-2.115 1.725-3.84 3.84-3.84zM6.668 10.24h2.933v3.84h1.92v-3.84h7.68v3.84h1.92v-3.84h2.932l0.848 15.36h-19.080l0.848-15.36z"></path>
</symbol>
</defs>
</svg>
