<svg width="18" height="18" viewBox="0 0 18 18" fill="none" xmlns="http://www.w3.org/2000/svg">
<path d="M7.56001 0C6.96797 0 6.48001 0.487969 6.48001 1.08V1.8H3.66751C3.62251 1.79156 3.57751 1.79156 3.53251 1.8H2.88001C2.86876 1.8 2.85751 1.8 2.84626 1.8C2.64797 1.80984 2.49329 1.97859 2.50313 2.17688C2.51297 2.37516 2.68172 2.52984 2.88001 2.52H3.27376L4.56751 17.1C4.61251 17.6034 5.04141 18 5.54626 18H12.4538C12.9586 18 13.3875 17.6034 13.4325 17.1L14.7263 2.52H15.12C15.2494 2.52141 15.3703 2.45391 15.4364 2.34141C15.5011 2.22891 15.5011 2.09109 15.4364 1.97859C15.3703 1.86609 15.2494 1.79859 15.12 1.8H11.52V1.08C11.52 0.487969 11.032 0 10.44 0H7.56001ZM7.56001 0.72H10.44C10.6425 0.72 10.8 0.8775 10.8 1.08V1.8H7.20001V1.08C7.20001 0.8775 7.35751 0.72 7.56001 0.72ZM3.99376 2.52H14.0063L12.7125 17.0438C12.7013 17.1689 12.5677 17.28 12.4538 17.28H5.54626C5.43235 17.28 5.29876 17.1689 5.28751 17.0438L3.99376 2.52ZM6.80626 3.58875C6.79079 3.59156 6.77532 3.59578 6.76126 3.6C6.59391 3.63797 6.47579 3.78844 6.48001 3.96V15.84C6.4786 15.9694 6.5461 16.0903 6.6586 16.1564C6.7711 16.2211 6.90891 16.2211 7.02141 16.1564C7.13391 16.0903 7.20141 15.9694 7.20001 15.84V3.96C7.20422 3.85594 7.16204 3.75609 7.08751 3.68578C7.01157 3.61406 6.90891 3.57891 6.80626 3.58875ZM8.96626 3.58875C8.95079 3.59156 8.93532 3.59578 8.92126 3.6C8.75391 3.63797 8.63579 3.78844 8.64001 3.96V15.84C8.6386 15.9694 8.7061 16.0903 8.8186 16.1564C8.9311 16.2211 9.06891 16.2211 9.18141 16.1564C9.29391 16.0903 9.36141 15.9694 9.36001 15.84V3.96C9.36422 3.85594 9.32204 3.75609 9.24751 3.68578C9.17157 3.61406 9.06891 3.57891 8.96626 3.58875ZM11.1263 3.58875C11.1108 3.59156 11.0953 3.59578 11.0813 3.6C10.9139 3.63797 10.7958 3.78844 10.8 3.96V15.84C10.7986 15.9694 10.8661 16.0903 10.9786 16.1564C11.0911 16.2211 11.2289 16.2211 11.3414 16.1564C11.4539 16.0903 11.5214 15.9694 11.52 15.84V3.96C11.5242 3.85594 11.482 3.75609 11.4075 3.68578C11.3316 3.61406 11.2289 3.57891 11.1263 3.58875Z" fill="#6C6C6C"/>
</svg>
